<svg width="371" height="371" viewBox="0 0 371 371" fill="none" xmlns="http://www.w3.org/2000/svg">
<path d="M306.56 0H64.41C28.8373 0 0 28.8373 0 64.41V306.56C0 342.133 28.8373 370.97 64.41 370.97H306.56C342.133 370.97 370.97 342.133 370.97 306.56V64.41C370.97 28.8373 342.133 0 306.56 0Z" fill="#DBDDE5"/>
<path d="M225.32 107.68L185.49 167.52L145.47 107.68H108.97V263.31H140.84V151.59L184.01 217.18H186.79L230.14 151.59V195.05H262.01V107.68H225.33H225.32Z" fill="#1E173E"/>
<path d="M269.07 214.27C262.94 208.44 255.27 205.68 245.46 205.68C236.26 205.68 228.59 208.75 222.15 214.57C216.02 220.4 212.95 227.76 212.95 236.65C212.95 245.54 216.02 253.21 222.15 259.04C228.59 264.87 236.26 267.93 245.46 267.93C255.27 267.93 262.94 264.86 269.07 259.04C275.2 253.21 278.27 245.55 278.27 236.65C278.27 227.75 275.2 220.09 269.07 214.26V214.27Z" fill="#BAA8F5"/>
</svg>
